<?xml version="1.0" encoding="UTF-8"?>
<svg width="120px" height="128px" viewBox="0 0 120 128" version="1.1" xmlns="http://www.w3.org/2000/svg" xmlns:xlink="http://www.w3.org/1999/xlink">
    <!-- Generator: Sketch 49.2 (51160) - http://www.bohemiancoding.com/sketch -->
    <title>Date</title>
    <desc>Created with Sketch.</desc>
    <defs></defs>
    <g id="Page-1" stroke="none" stroke-width="1" fill="none" fill-rule="evenodd">
        <g id="Date" fill="#FFFFFF" fill-rule="nonzero">
            <path d="M104,8 L96,8 L96,4 C96,1.789 94.211,0 92,0 C89.789,0 88,1.789 88,4 L88,8 L80,8 L80,4 C80,1.789 78.211,0 76,0 C73.789,0 72,1.789 72,4 L72,8 L64,8 L64,4 C64,1.789 62.211,0 60,0 C57.789,0 56,1.789 56,4 L56,8 L48,8 L48,4 C48,1.789 46.211,0 44,0 C41.789,0 40,1.789 40,4 L40,8 L32,8 L32,4 C32,1.789 30.211,0 28,0 C25.789,0 24,1.789 24,4 L24,8 L16,8 C7.164,8 0,15.164 0,24 L0,112 C0,120.836 7.164,128 16,128 L104,128 C112.836,128 120,120.836 120,112 L120,24 C120,15.164 112.836,8 104,8 Z M112,112 C112,116.414 108.41,120 104,120 L16,120 C11.588,120 8,116.414 8,112 L8,24 C8,19.584 11.588,16 16,16 L24,16 L24,20 C24,22.211 25.789,24 28,24 C30.211,24 32,22.211 32,20 L32,16 L40,16 L40,20 C40,22.211 41.789,24 44,24 C46.211,24 48,22.211 48,20 L48,16 L56,16 L56,20 C56,22.211 57.789,24 60,24 C62.211,24 64,22.211 64,20 L64,16 L72,16 L72,20 C72,22.211 73.789,24 76,24 C78.211,24 80,22.211 80,20 L80,16 L88,16 L88,20 C88,22.211 89.789,24 92,24 C94.211,24 96,22.211 96,20 L96,16 L104,16 C108.41,16 112,19.584 112,24 L112,112 Z" id="Shape"></path>
            <path d="M16,40 L16,112 L104,112 L104,40 L16,40 Z M80,48 L80,56 L72,56 L72,48 L80,48 Z M48,72 L40,72 L40,64 L48,64 L48,72 Z M56,64 L64,64 L64,72 L56,72 L56,64 Z M48,80 L48,88 L40,88 L40,80 L48,80 Z M56,80 L64,80 L64,88 L56,88 L56,80 Z M72,80 L80,80 L80,88 L72,88 L72,80 Z M72,72 L72,64 L80,64 L80,72 L72,72 Z M64,48 L64,56 L56,56 L56,48 L64,48 Z M48,48 L48,56 L40,56 L40,48 L48,48 Z M24,48 L32,48 L32,56 L24,56 L24,48 Z M24,64 L32,64 L32,72 L24,72 L24,64 Z M24,80 L32,80 L32,88 L24,88 L24,80 Z M24,104 L24,96 L32,96 L32,104 L24,104 Z M40,104 L40,96 L48,96 L48,104 L40,104 Z M56,104 L56,96 L64,96 L64,104 L56,104 Z M72,104 L72,96 L80,96 L80,104 L72,104 Z M96,104 L88,104 L88,96 L96,96 L96,104 Z M96,88 L88,88 L88,80 L96,80 L96,88 Z M96,72 L88,72 L88,64 L96,64 L96,72 Z M96,56 L88,56 L88,48 L96,48 L96,56 Z" id="Shape"></path>
        </g>
    </g>
</svg>