<?xml version="1.0" encoding="UTF-8"?>
<svg width="88px" height="128px" viewBox="0 0 88 128" version="1.1" xmlns="http://www.w3.org/2000/svg" xmlns:xlink="http://www.w3.org/1999/xlink">
    <!-- Generator: Sketch 49.2 (51160) - http://www.bohemiancoding.com/sketch -->
    <title>Location</title>
    <desc>Created with Sketch.</desc>
    <defs></defs>
    <g id="Page-1" stroke="none" stroke-width="1" fill="none" fill-rule="evenodd">
        <g id="Location" fill="#FFFEFE" fill-rule="nonzero">
            <path d="M44,0 C19.699,0 0,19.699 0,44 C0,68.301 44,128 44,128 C44,128 88,68.301 88,44 C88,19.699 68.301,0 44,0 Z M8,44 C8,24.148 24.148,8 44,8 C63.852,8 80,24.148 80,44 C80,57.828 59.992,91.211 44,114.238 C28.008,91.211 8,57.828 8,44 Z M44,24 C32.953,24 24,32.953 24,44 C24,55.047 32.953,64 44,64 C55.047,64 64,55.047 64,44 C64,32.953 55.047,24 44,24 Z M44,56 C37.383,56 32,50.617 32,44 C32,37.383 37.383,32 44,32 C50.617,32 56,37.383 56,44 C56,50.617 50.617,56 44,56 Z" id="Shape"></path>
        </g>
    </g>
</svg>